<?xml version="1.0" encoding="utf-8"?>
<svg viewBox="0 0 500 500" xmlns="http://www.w3.org/2000/svg">
  <path d="m 104.96315,82.354165 a 66.145839,66.145839 0 0 0 -66.108984,66.145775 66.145839,66.145839 0 0 0 66.145764,66.1459 66.145839,66.145839 0 0 0 66.1459,-66.1459 66.145839,66.145839 0 0 0 -66.1459,-66.145775 66.145839,66.145839 0 0 0 -0.0368,0 z M 69.637756,115.85795 h 70.724494 c 4.50697,0 8.16043,3.65345 8.16043,8.16043 v 48.96311 c 0,4.50699 -3.65346,8.16043 -8.16043,8.16043 H 69.637756 c -4.50698,0 -8.16043,-3.65344 -8.16043,-8.16043 v -48.96311 c 0,-4.50698 3.65345,-8.16043 8.16043,-8.16043 z m 0,8.16043 v 6.93726 c 3.81249,3.10474 9.89131,7.93274 22.881303,18.10447 2.861959,2.25128 8.535271,7.66346 12.480871,7.59971 3.94629,0.0631 9.61787,-5.34758 12.48101,-7.59971 12.99204,-10.17326 19.06933,-15.00024 22.88131,-18.10447 v -6.93726 z m 0,17.40879 v 31.55432 h 70.724494 v -31.55418 c -3.89579,3.10303 -9.42195,7.45835 -17.84223,14.05187 -3.83272,3.01734 -10.25775,9.38087 -17.52009,9.34161 -7.298212,0.0393 -13.805672,-6.41795 -17.521594,-9.34298 -8.42046,-6.59369 -13.944959,-10.94778 -17.84058,-14.05064 z" />
</svg>
