<?xml version="1.0" encoding="utf-8"?>
<svg viewBox="0 0 500 500" xmlns="http://www.w3.org/2000/svg">
  <path d="M 249.86072,-4.6642512e-6 A 250.00002,250.00002 0 0 0 -1.5000001e-6,249.99977 250.00002,250.00002 0 0 0 249.99973,500.00001 250.00002,250.00002 0 0 0 500,249.99977 250.00002,250.00002 0 0 0 249.99973,-4.6642512e-6 a 250.00002,250.00002 0 0 0 -0.13908,0 z M 116.34743,126.62847 h 267.30518 c 17.03422,0 30.84257,13.80832 30.84257,30.84257 v 185.05742 c 0,17.03429 -13.80835,30.84257 -30.84257,30.84257 H 116.34743 c -17.034259,0 -30.842579,-13.80828 -30.842579,-30.84257 V 157.47104 c 0,-17.03425 13.80832,-30.84257 30.842579,-30.84257 z m 0,30.84257 v 26.21957 c 14.40941,11.73445 37.38447,29.982 86.48051,68.42634 10.81685,8.50877 32.25929,28.96426 47.17179,28.72331 14.91512,0.23849 36.35101,-20.21133 47.17232,-28.72331 49.10378,-38.45012 72.07306,-56.69382 86.48056,-68.42634 v -26.21957 z m 0,65.797 V 342.52846 H 383.65261 V 223.26857 c -14.72426,11.72799 -35.61053,28.18904 -67.43521,53.10943 -14.48587,11.40412 -38.76945,35.45526 -66.21767,35.30687 -27.58379,0.14854 -52.17891,-24.25682 -66.22334,-35.31205 -31.82536,-24.92103 -52.70536,-41.37743 -67.42896,-53.10478 z" />
</svg>
