<?xml version="1.0" encoding="utf-8"?>
<svg viewBox="0 0 500 500" xmlns="http://www.w3.org/2000/svg">
  <path d="M 350.865 160.714 L 149.135 160.714 L 250 247.171 Z M 350.865 160.714"/>
  <path d="M 250 267.857 C 247.868 267.857 245.807 267.095 244.189 265.704 L 133.929 171.195 L 133.929 339.286 L 366.071 339.286 L 366.071 171.195 L 255.811 265.704 C 254.194 267.095 252.133 267.857 250 267.857 Z M 250 267.857"/>
  <path d="M 250 0 C 111.93 0 0 111.931 0 250 C 0 388.07 111.93 500 250 500 C 388.07 500 500 388.07 500 250 C 499.844 111.996 388.006 0.157 250 0 Z M 383.929 348.214 C 383.929 353.145 379.931 357.143 375 357.143 L 125 357.143 C 120.069 357.143 116.071 353.145 116.071 348.214 L 116.071 151.786 C 116.071 146.855 120.069 142.857 125 142.857 L 375 142.857 C 379.931 142.857 383.929 146.855 383.929 151.786 Z M 383.929 348.214"/>
</svg>