<?xml version="1.0" encoding="utf-8"?>
<svg viewBox="0 0 500 500" xmlns="http://www.w3.org/2000/svg">
  d="M 396.32422 -383.62109 A 944.88189 944.88189 0 0 0 -548.03125 561.25977 A 944.88189 944.88189 0 0 0 396.84961 1506.1426 A 944.88189 944.88189 0 0 0 1341.7324 561.25977 A 944.88189 944.88189 0 0 0 396.84961 -383.62109 A 944.88189 944.88189 0 0 0 396.32422 -383.62109 z M -108.29297 94.974609 L 901.99414 94.974609 C 966.37552 94.974609 1018.5645 147.16349 1018.5645 211.54492 L 1018.5645 910.97461 C 1018.5645 975.3561 966.37556 1027.5449 901.99414 1027.5449 L -108.29297 1027.5449 C -172.67446 1027.5449 -224.86328 975.3561 -224.86328 910.97461 L -224.86328 211.54492 C -224.86328 147.16349 -172.67446 94.974609 -108.29297 94.974609 z M -108.29297 211.54492 L -108.29297 310.64258 C -53.832267 354.99315 33.002641 423.96031 218.5625 569.26172 C 259.44508 601.42089 340.48732 678.73302 396.84961 677.82227 C 453.2216 678.72327 534.23912 601.43302 575.13867 569.26172 C 760.72765 423.93847 847.54071 354.98587 901.99414 310.64258 L 901.99414 211.54492 L -108.29297 211.54492 z M -108.29297 460.22656 L -108.29297 910.97461 L 901.99414 910.97461 L 901.99414 460.22852 C 846.34347 504.55481 767.40335 566.76977 647.12109 660.95703 C 592.37135 704.05933 500.59088 794.96123 396.84961 794.40039 C 292.59589 794.96131 199.63793 702.72112 146.55664 660.9375 C 26.271883 566.74782 -52.644705 504.55041 -108.29297 460.22656 z "/>
</svg>
