<?xml version="1.0" encoding="utf-8"?>
<svg viewBox="0 0 500 500" xmlns="http://www.w3.org/2000/svg">
  <path d="M 249.52539 0 A 250 250 0 0 0 0 250 A 250 250 0 0 0 250 500 A 250 250 0 0 0 500 250 A 250 250 0 0 0 250 0 A 250 250 0 0 0 249.52539 0 z M 125.24023 134.83594 L 374.75977 134.83594 C 390.66071 134.83594 403.55078 147.72599 403.55078 163.62695 L 403.55078 336.37305 C 403.55078 352.274 390.66071 365.16406 374.75977 365.16406 L 125.24023 365.16406 C 109.33928 365.16406 96.449219 352.274 96.449219 336.37305 L 96.449219 163.62695 C 96.449219 147.72599 109.33928 134.83594 125.24023 134.83594 z M 125.24023 163.62695 L 125.24023 188.10352 C 138.69096 199.05724 160.13715 216.08996 205.9668 251.97656 C 216.06398 259.91924 236.07962 279.014 250 278.78906 C 263.92278 279.0116 283.93181 259.92224 294.0332 251.97656 C 339.87004 216.08456 361.31084 199.05544 374.75977 188.10352 L 374.75977 163.62695 L 125.24023 163.62695 z M 125.24023 225.04688 L 125.24023 336.37305 L 374.75977 336.37305 L 374.75977 225.04688 C 361.01513 235.9946 341.51987 251.36064 311.8125 274.62305 C 298.2904 285.26847 275.62206 307.72058 250 307.58203 C 224.25138 307.72058 201.29168 284.93886 188.18164 274.61914 C 158.47368 251.35613 138.98426 235.994 125.24023 225.04688 z " />
</svg>
