<?xml version="1.0" encoding="utf-8"?>
<svg viewBox="0 0 500 500" xmlns="http://www.w3.org/2000/svg">
  <path d="M 66.108985,-2.8870864e-6 A 66.145839,66.145839 0 0 0 1.3333333e-6,66.145772 66.145839,66.145839 0 0 0 66.145765,132.29167 66.145839,66.145839 0 0 0 132.29167,66.145772 66.145839,66.145839 0 0 0 66.145765,-2.8870864e-6 a 66.145839,66.145839 0 0 0 -0.0368,0 z M 30.783591,33.503782 h 70.724499 c 4.50697,0 8.16043,3.65345 8.16043,8.16043 v 48.96311 c 0,4.50699 -3.65346,8.16043 -8.16043,8.16043 H 30.783591 c -4.50698,0 -8.16043,-3.65344 -8.16043,-8.16043 v -48.96311 c 0,-4.50698 3.65345,-8.16043 8.16043,-8.16043 z m 0,8.16043 v 6.93726 c 3.81249,3.10474 9.89131,7.93274 22.881303,18.10447 2.861959,2.25128 8.535271,7.66346 12.480871,7.59971 3.94629,0.0631 9.61787,-5.34758 12.48101,-7.59971 12.99204,-10.17326 19.06933,-15.00024 22.881315,-18.10447 v -6.93726 z m 0,17.40879 v 31.55432 h 70.724499 v -31.55418 c -3.895795,3.10303 -9.421955,7.45835 -17.842235,14.05187 -3.83272,3.01734 -10.25775,9.38087 -17.52009,9.34161 -7.298212,0.0393 -13.805672,-6.41795 -17.521594,-9.34298 -8.42046,-6.59369 -13.944959,-10.94778 -17.84058,-14.05064 z" />
</svg>
