<?xml version="1.0" encoding="utf-8"?>
<svg viewBox="0 0 500 500" xmlns="http://www.w3.org/2000/svg">
  <defs>
    <clipPath id="clippath1" transform="">
      <path d="M 0 551.986 L 530.973 551.986 L 530.973 0 L 0 0 Z" style="fill: none; clip-rule: nonzero;"/>
    </clipPath>
  </defs>
  <g style="clip-path: url(#clippath1);" transform="matrix(15.347308, 0, 0, -15.347308, -2092.149902, 6822.575195)">
    <g transform="translate(152.6083 444.5454)">
      <path d="M 0 0 C -8.995 0 -16.288 -7.293 -16.288 -16.29 C -16.288 -23.487 -11.621 -29.592 -5.148 -31.747 C -4.333 -31.896 -4.036 -31.393 -4.036 -30.961 C -4.036 -30.575 -4.05 -29.55 -4.058 -28.191 C -8.589 -29.175 -9.545 -26.007 -9.545 -26.007 C -10.286 -24.126 -11.354 -23.625 -11.354 -23.625 C -12.833 -22.614 -11.242 -22.634 -11.242 -22.634 C -9.607 -22.75 -8.747 -24.313 -8.747 -24.313 C -7.294 -26.802 -4.934 -26.083 -4.006 -25.667 C -3.858 -24.614 -3.438 -23.896 -2.972 -23.489 C -6.589 -23.078 -10.392 -21.68 -10.392 -15.438 C -10.392 -13.66 -9.757 -12.206 -8.715 -11.067 C -8.883 -10.655 -9.442 -8.999 -8.556 -6.756 C -8.556 -6.756 -7.188 -6.318 -4.076 -8.426 C -2.777 -8.065 -1.383 -7.884 0.002 -7.878 C 1.385 -7.884 2.779 -8.065 4.08 -8.426 C 7.19 -6.318 8.555 -6.756 8.555 -6.756 C 9.444 -8.999 8.885 -10.655 8.717 -11.067 C 9.761 -12.206 10.392 -13.66 10.392 -15.438 C 10.392 -21.696 6.583 -23.073 2.954 -23.476 C 3.539 -23.979 4.06 -24.973 4.06 -26.493 C 4.06 -28.67 4.04 -30.427 4.04 -30.961 C 4.04 -31.397 4.333 -31.904 5.16 -31.745 C 11.628 -29.586 16.291 -23.485 16.291 -16.29 C 16.291 -7.293 8.997 0 0 0" style="fill-rule: evenodd; fill-opacity: 1;"/>
    </g>
  </g>
</svg>