<?xml version="1.0" encoding="utf-8"?>
<svg viewBox="0 0 500 500" xmlns="http://www.w3.org/2000/svg">
  <path d="M 425 215.08 L 342.449 281.12 C 348.262 293.909 351.5 308.114 351.5 323.078 C 351.5 379.135 306.057 424.578 250 424.578 C 193.943 424.578 148.501 379.135 148.501 323.078 C 148.501 308.075 151.756 293.835 157.596 281.02 L 157.603 281.02 C 173.592 245.959 208.95 221.59 250 221.59 C 291.05 221.59 326.409 245.959 342.398 281.02 C 326.409 245.958 291.051 221.59 250 221.59 L 250 221.503 C 208.908 221.503 173.518 245.921 157.552 281.041 L 75 214.999 L 250 75 L 250 75.081 Z M 250 0 C 111.929 0 0 111.929 0 250 C 0 388.071 111.929 500 250 500 C 388.071 500 500 388.071 500 250 C 500 111.929 388.071 0 250 0 Z" style=""/>
  <path d="M 157.601 281.579 L 341.885 280.854" style=""/>
  <path d="M 250 221.59 C 291.136 221.59 326.558 246.062 342.499 281.242 L 157.501 281.242 C 173.442 246.062 208.864 221.59 250 221.59 Z" style="fill: rgba(0, 0, 0, 0.5);"/>
  <path d="M 75 215 L 250 75 L 250 221.503 C 208.907 221.503 173.518 245.922 157.552 281.042 Z" style="fill: rgba(0, 0, 0, 0.63);"/>
  <path d="M 425 215.08 L 342.445 281.124 C 326.478 246.008 291.091 221.59 250 221.59 L 250 75.08 Z" style="fill: rgba(0, 0, 0, 0.74);"/>
  <path d="M 157.6 281.58 L 341.885 280.854" style=""/>
  <path d="M 351.5 323.079 C 351.5 379.135 306.057 424.579 250 424.579 C 193.943 424.579 148.5 379.135 148.5 323.079 C 148.5 308.076 151.755 293.835 157.596 281.02 L 342.403 281.02 C 348.245 293.835 351.5 308.076 351.5 323.079 Z" style="fill: rgba(0, 0, 0, 0.36);"/>
</svg>