<?xml version="1.0" encoding="UTF-8" standalone="no"?>
<svg
   xmlns:dc="http://purl.org/dc/elements/1.1/"
   xmlns:cc="http://creativecommons.org/ns#"
   xmlns:rdf="http://www.w3.org/1999/02/22-rdf-syntax-ns#"
   xmlns:svg="http://www.w3.org/2000/svg"
   xmlns="http://www.w3.org/2000/svg"
   xmlns:sodipodi="http://sodipodi.sourceforge.net/DTD/sodipodi-0.dtd"
   xmlns:inkscape="http://www.inkscape.org/namespaces/inkscape"
   width="210mm"
   height="297mm"
   viewBox="0 0 210 297"
   version="1.1"
   id="svg8"
   inkscape:version="1.0.2 (e86c8708, 2021-01-15)"
   sodipodi:docname="gScholar2.svg">
  <defs
     id="defs2" />
  <sodipodi:namedview
     id="base"
     pagecolor="#ffffff"
     bordercolor="#666666"
     borderopacity="1.0"
     inkscape:pageopacity="0.0"
     inkscape:pageshadow="2"
     inkscape:zoom="0.175"
     inkscape:cx="505.43311"
     inkscape:cy="-27.419297"
     inkscape:document-units="mm"
     inkscape:current-layer="layer1"
     inkscape:document-rotation="0"
     showgrid="false"
     inkscape:window-width="1388"
     inkscape:window-height="847"
     inkscape:window-x="52"
     inkscape:window-y="25"
     inkscape:window-maximized="0" />
  <metadata
     id="metadata5">
    <rdf:RDF>
      <cc:Work
         rdf:about="">
        <dc:format>image/svg+xml</dc:format>
        <dc:type
           rdf:resource="http://purl.org/dc/dcmitype/StillImage" />
        <dc:title></dc:title>
      </cc:Work>
    </rdf:RDF>
  </metadata>
  <g
     inkscape:label="Layer 1"
     inkscape:groupmode="layer"
     id="layer1">
    <path
       id="path833"
       style="fill:#000000;fill-rule:evenodd;stroke-width:0.893043"
       d="M 27.610421,-466.42276 A 250,250 0 0 0 -222.24978,-216.42252 250,250 0 0 0 27.749946,33.577192 250,250 0 0 0 277.75018,-216.42252 250,250 0 0 0 27.749946,-466.42276 a 250,250 0 0 0 -0.139525,0 z m 0.166915,109.69201 c 3.658243,0 7.316586,0.42485 10.878923,1.27434 l 104.349181,25.21034 c 9.97455,2.41144 9.97455,14.85212 0,17.26355 l -52.777654,12.71499 c 4.76804,9.4265 7.672916,19.94906 7.672916,31.23892 0,38.74723 -31.403514,70.15023 -70.150756,70.15023 -38.74726,0 -70.150753,-31.403 -70.150753,-70.15023 0,-11.28986 2.959663,-21.81242 7.672916,-31.23892 l -36.171436,-8.7142 v 28.8277 c 3.836355,2.30181 6.57686,6.30256 6.57686,11.12542 0,4.60362 -2.521018,8.43964 -6.08335,10.79623 l 8.549349,34.14366 c 0.931684,3.78155 -1.150833,7.67291 -4.16512,7.67291 h -22.90868 c -3.014287,0 -5.096804,-3.89136 -4.16512,-7.67291 l 8.549866,-34.14366 c -3.562332,-2.35659 -6.083867,-6.19261 -6.083867,-10.79623 0,-4.82286 2.740485,-8.82361 6.57686,-11.12542 v -32.00632 l -3.507279,-0.82217 c -9.919718,-2.41143 -9.919718,-14.90691 0,-17.31832 l 104.458221,-25.15557 c 3.562337,-0.84949 7.22068,-1.27434 10.878923,-1.27434 z m -52.311535,175.71898 52.284145,52.28415 52.284148,-52.28415 c 39.185676,1.69894 70.479416,33.76004 70.479416,73.32938 v 5.26118 c 0,14.523354 -11.78303,26.306387 -26.3064,26.306387 H -68.707213 c -14.523371,0 -26.306404,-11.783033 -26.306404,-26.306387 v -5.26118 c 0,-39.56934 31.293724,-71.63044 70.479418,-73.32938 z" />
  </g>
</svg>
