<?xml version="1.0" encoding="UTF-8" standalone="no"?>
<svg
   xmlns:dc="http://purl.org/dc/elements/1.1/"
   xmlns:cc="http://creativecommons.org/ns#"
   xmlns:rdf="http://www.w3.org/1999/02/22-rdf-syntax-ns#"
   xmlns:svg="http://www.w3.org/2000/svg"
   xmlns="http://www.w3.org/2000/svg"
   width="210mm"
   height="297mm"
   viewBox="0 0 210 297"
   version="1.1"
   id="svg8">
  <defs
     id="defs2" />
  <metadata
     id="metadata5">
    <rdf:RDF>
      <cc:Work
         rdf:about="">
        <dc:format>image/svg+xml</dc:format>
        <dc:type
           rdf:resource="http://purl.org/dc/dcmitype/StillImage" />
        <dc:title></dc:title>
      </cc:Work>
    </rdf:RDF>
  </metadata>
  <g
     id="layer1">
    <path
       id="path837"
       style="fill:#000000;fill-rule:evenodd;stroke-width:1.75079"
       d="M 430 294.28516 A 250.00001 250.00001 0 0 0 180 544.28516 A 250.00001 250.00001 0 0 0 430 794.28516 A 250.00001 250.00001 0 0 0 680 544.28516 A 250.00001 250.00001 0 0 0 430 294.28516 z M 429.99805 452.28516 C 434.51778 452.28516 439.03987 452.84404 443.38867 453.96289 L 603 495.02734 C 616.47557 498.49657 616.47557 513.40776 603 516.87695 L 443.38281 557.94336 C 431.73835 560.93818 421.79356 559.27545 416.60938 557.94336 L 304.70117 529.14844 C 297.6916 533.18308 293.29816 539.54701 292.86328 546.74414 C 298.12189 549.43709 301.82422 554.07518 301.82422 559.61914 C 301.82422 564.78462 298.57325 569.13099 293.89258 571.91016 L 308.50195 626.95703 C 309.77226 631.74392 305.42192 636.28711 299.5625 636.28711 L 267.45703 636.28711 C 261.60333 636.28711 257.25313 631.74392 258.52344 626.95703 L 273.13281 571.91016 C 268.45214 569.13099 265.20117 564.78462 265.20117 559.61914 C 265.20117 553.92181 269.08142 549.15089 274.5918 546.50586 C 274.96373 538.06289 278.71679 530.35153 284.82227 524.03125 L 256.99609 516.87305 C 243.52628 513.40866 243.52628 498.49173 256.99609 495.02734 L 416.61523 453.96289 C 420.96114 452.84404 425.47831 452.28516 429.99805 452.28516 z M 531.74805 551.24805 L 539.86328 605.62109 C 539.86328 622.55976 490.67515 636.28711 429.99805 636.28711 C 369.32094 636.28711 320.13477 622.55976 320.13477 605.62109 L 328.24805 551.25391 L 411.23047 572.59961 C 418.52617 574.47796 432.43658 576.79715 448.76172 572.59961 L 531.74805 551.24805 z "
       transform="scale(0.26458333)" />
  </g>
</svg>
