<?xml version="1.0" encoding="utf-8"?>
<svg viewBox="0 0 500 500" xmlns="http://www.w3.org/2000/svg">
  <path d="M 262 210.318 L 262 100.072 L 405.788 215.1 L 346.109 262.843 C 327.243 232.979 299.814 214.589 262 210.318 Z" style="stroke-linejoin: round; stroke-linecap: round; stroke-width: 14px; paint-order: fill;"/>
  <path d="M 94.212 215 L 238 99.972 L 238 210.22 C 199.289 214.622 172.786 232.714 153.878 262.735 Z" style="stroke-linejoin: round; stroke-linecap: round; stroke-width: 14px; paint-order: fill;"/>
  <path d="M 249.999 234.6 C 285.977 234.6 305.181 246.598 320.192 268.253 L 320.191 268.252 L 179.795 268.252 L 179.793 268.255 C 194.686 246.575 212.524 234.6 249.999 234.6 Z" style="stroke-linejoin: round; stroke-linecap: round; stroke-width: 14px; paint-order: fill;"/>
  <path d="M 338.5 323.059 C 338.5 348.429 329.31 368.909 312.58 385.639 C 295.85 402.369 275.37 411.559 250 411.559 C 224.631 411.559 204.15 402.369 187.42 385.639 C 170.69 368.909 161.5 348.429 161.5 323.059 C 161.5 309.481 162.985 302.756 166.279 294 L 333.722 294 C 337.018 302.755 338.5 309.48 338.5 323.059 Z" style="stroke-linejoin: round; stroke-linecap: round; stroke-width: 14px; paint-order: fill;"/>
  <path d="M 67.5 224.371 L 55.788 214.999 L 67.5 205.627 L 242.5 65.628 L 250 59.628 L 257.5 65.628 L 432.5 205.708 L 444.212 215.08 L 432.5 224.452 L 356.922 284.91 C 360.981 296.07 363.5 306.759 363.5 323.078 C 363.5 353.584 349.801 383.294 330.21 403.38 C 310.123 422.971 280.503 436.578 250 436.578 C 219.494 436.578 189.785 422.878 169.698 403.288 C 150.107 383.201 136.501 353.581 136.501 323.078 C 136.501 307.036 139.022 296.126 143.105 284.853 Z M 250 0 C 111.929 0 0 111.929 0 250 C 0 388.071 111.929 500 250 500 C 388.071 500 500 388.071 500 250 C 500 111.929 388.071 0 250 0 Z" style=""/>
  <path style="fill: rgb(216, 216, 216); stroke: rgb(0, 0, 0);" d="M 230.932 249.099"/>
  <path style="fill: rgb(216, 216, 216); stroke: rgb(0, 0, 0);" d="M 579.684 284.178"/>
</svg>