<?xml version="1.0" encoding="utf-8"?>
<svg viewBox="0 0 500 500" xmlns="http://www.w3.org/2000/svg">
  d="M 249.86022,2.9867102e-5 A 250,250 0 0 0 2.000002e-5,250.00027 250,250 0 0 0 249.99975,499.99998 250,250 0 0 0 499.99998,250.00027 250,250 0 0 0 249.99975,2.9867102e-5 a 250,250 0 0 0 -0.13953,0 z M 250.02714,109.69204 c 3.65824,0 7.31658,0.42485 10.87892,1.27434 l 104.34918,25.21034 c 9.97455,2.41144 9.97455,14.85212 0,17.26355 l -52.77765,12.71499 c 4.76804,9.4265 7.67291,19.94906 7.67291,31.23892 0,38.74723 -31.40351,70.15023 -70.15075,70.15023 -38.74726,0 -70.15076,-31.403 -70.15076,-70.15023 0,-11.28986 2.95967,-21.81242 7.67292,-31.23892 l -36.17144,-8.7142 v 28.8277 c 3.83636,2.30181 6.57686,6.30256 6.57686,11.12542 0,4.60362 -2.52101,8.43964 -6.08335,10.79623 l 8.54935,34.14366 c 0.93169,3.78155 -1.15083,7.67291 -4.16512,7.67291 h -22.90868 c -3.01428,0 -5.0968,-3.89136 -4.16512,-7.67291 l 8.54987,-34.14366 c -3.56233,-2.35659 -6.08387,-6.19261 -6.08387,-10.79623 0,-4.82286 2.74049,-8.82361 6.57686,-11.12542 v -32.00632 l -3.50728,-0.82217 c -9.91971,-2.41143 -9.91971,-14.90691 0,-17.31832 l 104.45822,-25.15557 c 3.56234,-0.84949 7.22068,-1.27434 10.87893,-1.27434 z m -52.31154,175.71898 52.28415,52.28415 52.28414,-52.28415 c 39.18568,1.69894 70.47942,33.76004 70.47942,73.32938 v 5.26118 c 0,14.52335 -11.78303,26.30638 -26.3064,26.30638 H 153.54259 c -14.52337,0 -26.30641,-11.78303 -26.30641,-26.30638 v -5.26118 c 0,-39.56934 31.29373,-71.63044 70.47942,-73.32938 z" />
</svg>
