<?xml version="1.0" encoding="utf-8"?>
<svg viewBox="0 0 500 500" xmlns="http://www.w3.org/2000/svg">
  <path d="m249.86 2.9867e-5a250 250 0 0 0-249.86 250 250 250 0 0 0 250 250 250 250 0 0 0 250-250 250 250 0 0 0-250-250 250 250 0 0 0-0.13953 0zm0.16692 109.69c3.6582 0 7.3166 0.42485 10.879 1.2743l104.35 25.21c9.9746 2.4114 9.9746 14.852 0 17.264l-52.778 12.715c4.768 9.4265 7.6729 19.949 7.6729 31.239 0 38.747-31.404 70.15-70.151 70.15-38.747 0-70.151-31.403-70.151-70.15 0-11.29 2.9597-21.812 7.6729-31.239l-36.171-8.7142v28.828c3.8364 2.3018 6.5769 6.3026 6.5769 11.125 0 4.6036-2.521 8.4396-6.0834 10.796l8.5494 34.144c0.93169 3.7816-1.1508 7.6729-4.1651 7.6729h-22.909c-3.0143 0-5.0968-3.8914-4.1651-7.6729l8.5499-34.144c-3.5623-2.3566-6.0839-6.1926-6.0839-10.796 0-4.8229 2.7405-8.8236 6.5769-11.125v-32.006l-3.5073-0.82217c-9.9197-2.4114-9.9197-14.907 0-17.318l104.46-25.156c3.5623-0.84949 7.2207-1.2743 10.879-1.2743zm-52.312 175.72 52.284 52.284 52.284-52.284c39.186 1.6989 70.479 33.76 70.479 73.329v5.2612c0 14.523-11.783 26.306-26.306 26.306h-192.91c-14.523 0-26.306-11.783-26.306-26.306v-5.2612c0-39.569 31.294-71.63 70.479-73.329z"/>
</svg>
