<?xml version="1.0" encoding="utf-8"?>
<svg viewBox="0 0 500 500" xmlns="http://www.w3.org/2000/svg">
  <path d="M 68.75 222.809 L 58.99 214.999 L 68.75 207.189 L 243.75 67.19 L 250 62.19 L 256.25 67.19 L 431.25 207.27 L 441.01 215.08 L 431.25 222.89 L 354.547 284.249 C 358.865 295.755 361.5 306.987 361.5 323.078 C 361.5 353.167 348.208 382.146 328.811 401.951 C 309.007 421.347 280.087 434.578 250 434.578 C 219.911 434.578 190.933 421.285 171.127 401.889 C 151.731 382.085 138.501 353.165 138.501 323.078 C 138.501 307.26 141.139 295.796 145.48 284.191 Z M 250 0 C 111.929 0 0 111.929 0 250 C 0 388.071 111.929 500 250 500 C 388.071 500 500 388.071 500 250 C 500 111.929 388.071 0 250 0 Z" style=""/>
  <path d="M 260 210.028 L 260 95.91 L 408.99 215.1 L 345.597 265.814 C 326.868 234.895 299.174 216.193 260.992 212.216 L 261.088 210.028 Z" style="stroke-linejoin: round; stroke-linecap: round; stroke-width: 14px; paint-order: fill;"/>
  <path d="M 91.01 215 L 240 95.81 L 240 212.017 C 200.804 215.861 173.053 234.842 154.392 265.707 Z" style="stroke-linejoin: round; stroke-linecap: round; stroke-width: 14px; paint-order: fill;"/>
  <path d="M 249.999 233.6 C 286.242 233.6 306.804 246.476 322.081 269.252 L 177.913 269.252 C 193.144 246.468 213.027 233.6 249.999 233.6 Z" style="stroke-linejoin: round; stroke-linecap: round; stroke-width: 14px; paint-order: fill;"/>
  <path d="M 340.5 323.059 C 340.5 348.839 330.976 370.071 313.994 387.053 C 297.012 404.035 275.78 413.559 250 413.559 C 224.221 413.559 202.988 404.035 186.006 387.053 C 169.024 370.071 159.5 348.839 159.5 323.059 C 159.5 309.265 161.224 301.493 164.903 292 L 335.098 292 C 338.779 301.492 340.5 309.264 340.5 323.059 Z" style="stroke-linejoin: round; stroke-linecap: round; stroke-width: 14px; paint-order: fill;"/>
</svg>