<?xml version="1.0" encoding="utf-8"?>
<svg viewBox="0 0 500 500" xmlns="http://www.w3.org/2000/svg">
  <path d="M 345.33 267.312 C 326.742 235.961 298.333 216.516 258.998 213.028 L 259 213.028 L 259 93.829 L 410.591 215.1 L 345.328 267.31 Z" style="stroke-linejoin: round; stroke-linecap: round; stroke-width: 14px; paint-order: fill;"/>
  <path d="M 89.409 215 L 241 93.729 L 241 212.927 C 201.572 216.469 173.169 235.915 154.661 267.203 Z" style="stroke-linejoin: round; stroke-linecap: round; stroke-width: 14px; paint-order: fill;"/>
  <path d="M 249.999 231.6 C 287.557 231.6 310.06 246.273 325.761 271.253 L 325.76 271.252 L 174.237 271.252 L 174.236 271.254 C 189.937 246.271 211.685 231.6 249.999 231.6 Z" style="stroke-linejoin: round; stroke-linecap: round; stroke-width: 14px; paint-order: fill;"/>
  <path d="M 341.5 323.059 C 341.5 349.044 331.809 370.652 314.701 387.76 C 297.593 404.868 275.985 414.559 250 414.559 C 224.016 414.559 202.407 404.868 185.299 387.76 C 168.191 370.652 158.5 349.044 158.5 323.059 C 158.5 309.156 160.348 300.846 164.22 291 L 335.781 291 C 339.655 300.845 341.5 309.156 341.5 323.059 Z" style="stroke-linejoin: round; stroke-linecap: round; stroke-width: 14px; paint-order: fill;"/>
  <path d="M 69.375 222.028 L 60.591 214.999 L 69.375 207.97 L 244.375 67.971 L 250 63.471 L 255.625 67.971 L 430.625 208.051 L 439.409 215.08 L 430.625 222.109 L 353.354 283.922 C 357.806 295.592 360.5 307.101 360.5 323.078 C 360.5 352.959 347.41 381.575 328.111 401.237 C 308.449 420.535 279.879 433.578 250 433.578 C 220.119 433.578 191.504 420.487 171.841 401.189 C 152.543 381.527 139.501 352.957 139.501 323.078 C 139.501 307.372 142.198 295.625 146.672 283.864 Z M 250 0 C 111.929 0 0 111.929 0 250 C 0 388.071 111.929 500 250 500 C 388.071 500 500 388.071 500 250 C 500 111.929 388.071 0 250 0 Z" style=""/>
  <path style="fill: rgb(216, 216, 216); stroke: rgb(0, 0, 0);" d="M 230.932 249.099"/>
  <path style="fill: rgb(216, 216, 216); stroke: rgb(0, 0, 0);" d="M 579.684 284.178"/>
</svg>