<?xml version="1.0" encoding="utf-8"?>
<svg viewBox="0 0 500 500" xmlns="http://www.w3.org/2000/svg">
  <path d="M 390.308 367.808 L 390.308 270.208 C 390.308 217.917 362.392 193.583 325.175 193.583 C 295.142 193.583 281.683 210.108 274.183 221.7 L 274.183 197.583 L 217.6 197.583 C 218.35 213.558 217.6 367.808 217.6 367.808 L 274.183 367.808 L 274.183 272.742 C 274.183 267.667 274.55 262.583 276.05 258.95 C 280.133 248.783 289.442 238.258 305.067 238.258 C 325.55 238.258 333.733 253.867 333.733 276.742 L 333.733 367.817 L 390.308 367.817 Z M 157.992 174.35 C 177.717 174.35 190.008 161.267 190.008 144.925 C 189.642 128.233 177.717 115.525 158.367 115.525 C 139.017 115.525 126.358 128.225 126.358 144.925 C 126.358 161.267 138.642 174.35 157.633 174.35 L 157.992 174.35 Z M 250 500 C 111.933 500 0 388.067 0 250 C 0 111.925 111.933 0 250 0 C 388.067 0 500 111.925 500 250 C 500 388.067 388.067 500 250 500 Z M 186.283 367.808 L 186.283 197.583 L 129.708 197.583 L 129.708 367.808 L 186.283 367.808 Z" style="fill-rule: evenodd; clip-rule: evenodd;"/>
</svg>