<?xml version="1.0" encoding="utf-8"?>
<svg viewBox="0 0 500 500" xmlns="http://www.w3.org/2000/svg">
  <path class="st0" d="M 500 250 C 500 388.086 388.086 500 250 500 C 111.914 500 0 388.086 0 250 C 0 111.914 111.914 0 250 0 C 388.086 0 500 111.914 500 250 Z M 212.695 363.867 L 294.336 363.867 C 363.281 363.867 405.274 312.891 405.274 259.18 C 405.274 209.766 371.289 154.492 293.945 154.492 L 212.695 154.492 Z M 242.773 181.641 L 289.063 181.641 C 347.656 181.641 374.414 217.188 374.414 259.18 C 374.414 284.961 358.789 336.719 290.625 336.719 L 242.773 336.719 Z M 168.555 154.492 L 138.477 154.492 L 138.477 363.672 L 168.555 363.672 Z M 153.516 91.211 C 142.578 91.211 133.789 100 133.789 110.938 C 133.789 121.68 142.578 130.664 153.516 130.664 C 164.453 130.664 173.242 121.68 173.242 110.938 C 173.242 100.195 164.453 91.211 153.516 91.211 Z" style=""/>
</svg>