<?xml version="1.0" encoding="utf-8"?>
<svg viewBox="0 0 500 500" xmlns="http://www.w3.org/2000/svg">
  <path class="st0" d="M 500 250 C 500 388.125 388.125 500 250 500 C 111.875 500 0 388.125 0 250 C 0 111.875 111.875 0 250 0 C 388.125 0 500 111.875 500 250 Z M 204.25 381.875 C 315.125 381.875 375.75 290 375.75 210.375 C 375.75 207.75 375.75 205.125 375.625 202.625 C 387.375 194.125 397.625 183.5 405.75 171.375 C 395 176.125 383.375 179.375 371.125 180.875 C 383.625 173.375 393.125 161.625 397.625 147.5 C 386 154.375 373.125 159.375 359.375 162.125 C 348.375 150.375 332.75 143.125 315.375 143.125 C 282.125 143.125 255.125 170.125 255.125 203.375 C 255.125 208.125 255.625 212.75 256.75 217.125 C 206.625 214.625 162.25 190.625 132.5 154.125 C 127.375 163 124.375 173.375 124.375 184.375 C 124.375 205.25 135 223.75 151.25 234.5 C 141.375 234.25 132.125 231.5 124 227 C 124 227.25 124 227.5 124 227.75 C 124 257 144.75 281.25 172.375 286.875 C 167.375 288.25 162 289 156.5 289 C 152.625 289 148.875 288.625 145.125 287.875 C 152.75 311.875 175 329.25 201.375 329.75 C 180.75 345.875 154.75 355.5 126.5 355.5 C 121.625 355.5 116.875 355.25 112.125 354.625 C 138.5 371.875 170.25 381.875 204.25 381.875" style=""/>
</svg>