<?xml version="1.0" standalone="no"?>
<!DOCTYPE svg PUBLIC "-//W3C//DTD SVG 20010904//EN"
 "http://www.w3.org/TR/2001/REC-SVG-20010904/DTD/svg10.dtd">
<svg version="1.0" xmlns="http://www.w3.org/2000/svg"
 width="700.000000pt" height="700.000000pt" viewBox="0 0 700.000000 700.000000"
 preserveAspectRatio="xMidYMid meet">
<metadata>
Created by potrace 1.14, written by Peter Selinger 2001-2017
</metadata>
<g transform="translate(0.000000,700.000000) scale(0.100000,-0.100000)"
fill="#000000" stroke="none">
<path d="M690 6988 c-49 -10 -46 -9 -110 -27 -61 -18 -187 -82 -243 -125 -151
-116 -256 -269 -309 -452 l-23 -79 0 -2805 0 -2805 23 -78 c41 -145 112 -266
216 -370 109 -111 235 -182 390 -223 l91 -23 2785 2 c1532 1 2799 6 2815 10
199 53 305 109 427 229 117 115 181 231 235 427 12 43 14 5577 2 5641 -56 298
-272 551 -550 644 -142 48 16 45 -2939 44 -1704 0 -2782 -4 -2810 -10z"/>
</g>
</svg>
